<svg width="582" height="402" xmlns="http://www.w3.org/2000/svg" xmlns:xlink="http://www.w3.org/1999/xlink">
 <!-- Created with Method Draw - http://github.com/duopixel/Method-Draw/ -->
 <defs>
  <symbol viewBox="0 0 1097.1 820.85" height="820.85" width="1097.1" id="svg_3" xmlns:xlink="http://www.w3.org/1999/xlink">
   <defs>
    <linearGradient gradientUnits="userSpaceOnUse" y2="176.85" x2="564.84" y1="845.93" x1="564.84" id="svg_2">
     <stop stop-opacity="0.25" stop-color="gray" offset="0"/>
     <stop stop-opacity="0.12" stop-color="gray" offset="0.54"/>
     <stop stop-opacity="0.1" stop-color="gray" offset="1"/>
    </linearGradient>
   </defs>
   <title>back to school</title>
   <ellipse opacity="0.1" fill="#43a0cb" ry="18.88" rx="348.83" cy="801.97" cx="570.71"/>
   <path fill="#ffc1c7" transform="translate(-51.45 -39.57)" d="m819.75,767.52l-3,4.4l-18.55,27.6l-15.75,4.75l-11.75,-11.5l0.57,-7.59l2.93,-39.41s-72.7,-42.77 -79.2,-50.77s-31.5,-15.25 -31.5,-15.25s-38.25,-17.75 -52.5,-48.75s23.75,-35.75 23.75,-35.75l142.75,136.52l42.25,35.75z"/>
   <path fill="#575988" transform="translate(-51.45 -39.57)" d="m837.25,783.52l-45.25,42.25s-26,5 -49.25,1.5c-14.86,-2.24 -12,-10.39 -8.09,-16l0.07,-0.1a16.44,16.44 0 0 1 9.64,-6.34c19.24,-4.64 25.88,-18.57 25.88,-18.57l14,12l24.25,-28.26l17.93,8.42l10.82,5.1z"/>
   <line fill="#fff" y2="739.36" x2="774.98" y1="778.69" x1="729.8"/>
   <path opacity="0.1" transform="translate(-51.45 -39.57)" d="m826.43,778.44l-10.65,-5l1,-1.52l3,-4.4l-42.28,-35.75l-142.75,-136.5s-38,4.73 -23.75,35.73s52.5,48.75 52.5,48.75s25,7.25 31.5,15.25s79.25,50.75 79.25,50.75l-2.93,39.41l-0.14,1.88l-0.93,-0.79s-6.64,13.93 -25.88,18.57a16.44,16.44 0 0 0 -9.64,6.34l-0.07,0.1c-4,5.6 -6.77,13.75 8.09,16c23.25,3.5 49.25,-1.5 49.25,-1.5l45.25,-42.25l-10.82,-5.07z"/>
   <path opacity="0.1" fill="#43a0cb" transform="translate(-51.45 -39.57)" d="m63.3,469.55c17.36,74.2 54.11,138.34 112.18,169.45c120.71,64.62 392.92,31.29 596.07,-7a465.16,465.16 0 0 0 264.54,-151.23l-972.79,-11.22z"/>
   <path opacity="0.1" fill="#43a0cb" transform="translate(-51.45 -39.57)" d="m1128.65,120.29l-111.47,0a9.64,9.64 0 0 1 0,-19.27l19.27,0a9.63,9.63 0 0 1 0,-19.26l-13.76,0a9.64,9.64 0 0 1 0,-19.27l58.18,0c-12.91,-6 -28,-10.27 -45.39,-12.51c-158.64,-20.37 -215.28,-6.9 -235.26,7c-24.65,17.1 -52.15,29.68 -81.54,35.74c-97.88,20.19 -280.93,44.48 -446.84,-7.78c-82.46,-26 -143.74,17.92 -180.48,91.28l1056.64,0c-1.38,-21.32 -5.51,-41 -13.09,-58.24a9.61,9.61 0 0 1 -6.26,2.31z"/>
   <path opacity="0.1" fill="#43a0cb" transform="translate(-51.45 -39.57)" d="m53.84,314.67a491.17,491.17 0 0 0 4.32,129.46l978.68,35.79a459.56,459.56 0 0 0 68,-103.7l-1051,-61.55zm387.08,92.33l-19.27,0a9.64,9.64 0 1 1 0,19.27l-111.47,0a9.64,9.64 0 0 1 0,-19.27l19.27,0a9.63,9.63 0 1 1 0,-19.26l-13.76,0a9.64,9.64 0 0 1 0,-19.27l111.47,0a9.64,9.64 0 0 1 0,19.27l13.76,0a9.63,9.63 0 0 1 0,19.26z"/>
   <path opacity="0.1" fill="#43a0cb" transform="translate(-51.45 -39.57)" d="m1148.05,176.86l-1068.48,26c-13,33.41 -21.57,71.14 -25.57,110.33l1075.33,0a457.06,457.06 0 0 0 15.53,-70.33c3.2,-23.01 4.48,-45.27 3.19,-66zm-877.13,85.14l-19.27,0a9.64,9.64 0 1 1 0,19.27l-111.47,0a9.64,9.64 0 0 1 0,-19.27l19.27,0a9.63,9.63 0 0 1 0,-19.26l-13.76,0a9.64,9.64 0 0 1 0,-19.27l111.47,0a9.64,9.64 0 0 1 0,19.27l13.76,0a9.63,9.63 0 0 1 0,19.26z"/>
   <g opacity="0.1">
    <path stroke-width="2" stroke-miterlimit="10" stroke="#535461" fill="none" transform="translate(-51.45 -39.57)" d="m848.76,533.19s28.2,-69.5 80.86,-95.28a113.59,113.59 0 0 0 51.57,-50.08a191.17,191.17 0 0 0 12.93,-32.47"/>
    <path fill="#43a0cb" transform="translate(-51.45 -39.57)" d="m1027.21,338.92c-5.49,6.9 -33.9,17 -33.9,17s3.42,-29.95 8.91,-36.85a16,16 0 1 1 25,19.88l-0.01,-0.03z"/>
    <path fill="#43a0cb" transform="translate(-51.45 -39.57)" d="m1017.46,393.57c-8.36,2.81 -37.68,-4.18 -37.68,-4.18s19.15,-23.28 27.51,-26.09a16,16 0 1 1 10.17,30.27z"/>
    <path fill="#43a0cb" transform="translate(-51.45 -39.57)" d="m964.6,458.18c-8.63,-1.8 -30.42,-22.63 -30.42,-22.63s28.29,-10.43 36.92,-8.64a16,16 0 0 1 -6.5,31.27z"/>
    <path fill="#43a0cb" transform="translate(-51.45 -39.57)" d="m913.6,498.05c-8.81,-0.3 -33.81,-17.16 -33.81,-17.16s26.12,-15.06 34.93,-14.75a16,16 0 1 1 -1.12,31.91z"/>
    <path fill="#43a0cb" transform="translate(-51.45 -39.57)" d="m952.48,369.86c1.12,8.75 20.22,32.07 20.22,32.07s12.58,-27.4 11.45,-36.14a16,16 0 0 0 -31.67,4.07z"/>
    <path fill="#43a0cb" transform="translate(-51.45 -39.57)" d="m893.42,417.25c3.69,8 28.9,24.55 28.9,24.55s3.79,-29.9 0.1,-37.91a16,16 0 0 0 -29,13.36z"/>
    <path fill="#43a0cb" transform="translate(-51.45 -39.57)" d="m842.34,471.19c2.29,8.52 24.33,29.08 24.33,29.08s8.8,-28.83 6.52,-37.35a16,16 0 0 0 -30.85,8.27z"/>
    <path opacity="0.25" transform="translate(-51.45 -39.57)" d="m1027.21,338.92c-5.49,6.9 -33.9,17 -33.9,17s3.42,-29.95 8.91,-36.85a16,16 0 1 1 25,19.88l-0.01,-0.03z"/>
    <path opacity="0.25" transform="translate(-51.45 -39.57)" d="m1017.46,393.57c-8.36,2.81 -37.68,-4.18 -37.68,-4.18s19.15,-23.28 27.51,-26.09a16,16 0 1 1 10.17,30.27z"/>
    <path opacity="0.25" transform="translate(-51.45 -39.57)" d="m964.6,458.18c-8.63,-1.8 -30.42,-22.63 -30.42,-22.63s28.29,-10.43 36.92,-8.64a16,16 0 0 1 -6.5,31.27z"/>
    <path opacity="0.25" transform="translate(-51.45 -39.57)" d="m913.6,498.05c-8.81,-0.3 -33.81,-17.16 -33.81,-17.16s26.12,-15.06 34.93,-14.75a16,16 0 1 1 -1.12,31.91z"/>
    <path opacity="0.25" transform="translate(-51.45 -39.57)" d="m952.48,369.86c1.12,8.75 20.22,32.07 20.22,32.07s12.58,-27.4 11.45,-36.14a16,16 0 0 0 -31.67,4.07z"/>
    <path opacity="0.25" transform="translate(-51.45 -39.57)" d="m893.42,417.25c3.69,8 28.9,24.55 28.9,24.55s3.79,-29.9 0.1,-37.91a16,16 0 0 0 -29,13.36z"/>
    <path opacity="0.25" transform="translate(-51.45 -39.57)" d="m842.34,471.19c2.29,8.52 24.33,29.08 24.33,29.08s8.8,-28.83 6.52,-37.35a16,16 0 0 0 -30.85,8.27z"/>
   </g>
   <g opacity="0.1">
    <path stroke-width="2" stroke-miterlimit="10" stroke="#535461" fill="none" transform="translate(-51.45 -39.57)" d="m803.86,422s3.56,-74.92 44.69,-116.71a113.64,113.64 0 0 0 32.05,-64.34a191.29,191.29 0 0 0 1.4,-34.95"/>
    <path fill="#43a0cb" transform="translate(-51.45 -39.57)" d="m907.79,179.5c-2.89,8.34 -26.35,27.26 -26.35,27.26s-6.7,-29.39 -3.82,-37.72a16,16 0 0 1 30.17,10.46z"/>
    <path fill="#43a0cb" transform="translate(-51.45 -39.57)" d="m916.72,234.3c-7,5.42 -36.94,8.56 -36.94,8.56s10.35,-28.32 17.3,-33.74a16,16 0 0 1 19.64,25.18z"/>
    <path fill="#43a0cb" transform="translate(-51.45 -39.57)" d="m888.28,312.78c-8.74,1.17 -36.21,-11.26 -36.21,-11.26s23.23,-19.22 32,-20.39a16,16 0 0 1 4.24,31.65l-0.03,0z"/>
    <path fill="#43a0cb" transform="translate(-51.45 -39.57)" d="m853.38,367.31c-8.41,2.64 -37.58,-5 -37.58,-5s19.64,-22.86 28.06,-25.49a16,16 0 1 1 9.52,30.47l0,0.02z"/>
    <path fill="#43a0cb" transform="translate(-51.45 -39.57)" d="m847.55,233.48c4,7.88 29.72,23.55 29.72,23.55s2.77,-30 -1.19,-37.89a16,16 0 0 0 -28.53,14.34z"/>
    <path fill="#43a0cb" transform="translate(-51.45 -39.57)" d="m807.55,297.78c6.14,6.33 35.4,13.58 35.4,13.58s-6.33,-29.48 -12.47,-35.81a16,16 0 0 0 -22.93,22.23z"/>
    <path fill="#43a0cb" transform="translate(-51.45 -39.57)" d="m777.25,365.6c5,7.28 32.6,19.37 32.6,19.37s-1.27,-30.12 -6.24,-37.4a16,16 0 0 0 -26.36,18l0,0.03z"/>
   </g>
   <path opacity="0.1" fill="#43a0cb" transform="translate(-51.45 -39.57)" d="m482.46,125.07s-23.83,-1.43 -21,15.27a4.07,4.07 0 0 0 2.12,4.29s0,-1.24 2.44,-0.82a10.65,10.65 0 0 0 2.59,0.13a5.41,5.41 0 0 0 3.17,-1.31l0,0s6.7,-2.77 9.3,-13.72c0,0 1.93,-2.39 1.85,-3l-4,1.72s1.37,2.9 0.29,5.31c0,0 -0.13,-5.21 -0.9,-5.09c-0.16,0 -2.09,1 -2.09,1s2.37,5.06 0.58,8.73c0,0 0.68,-6.23 -1.32,-8.36l-2.83,1.65s2.76,5.22 0.89,9.48c0,0 0.48,-6.53 -1.48,-9.08l-2.57,2s2.6,5.15 1,8.68c0,0 -0.2,-7.61 -1.57,-8.18a15.66,15.66 0 0 0 -2.58,2.79s1.77,3.74 0.67,5.71c0,0 -0.67,-5.07 -1.23,-5.09c0,0 -2.24,3.36 -2.47,5.66a12.22,12.22 0 0 1 1.93,-6a6.77,6.77 0 0 0 -3.43,1.77s0.35,-2.37 4,-2.58c0,0 1.85,-2.55 2.34,-2.7c0,0 -3.61,-0.31 -5.79,0.67c0,0 1.92,-2.24 6.45,-1.23l2.54,-2.06s-4.75,-0.65 -6.77,0.06c0,0 2.32,-2 7.45,-0.53l2.76,-1.65a24.75,24.75 0 0 0 -6.47,-0.56s2.55,-1.37 7.28,0.11l2,-0.88s-3,-0.58 -3.84,-0.68s-0.91,-0.33 -0.91,-0.33a10.28,10.28 0 0 1 5.57,0.62s4.11,-1.53 4.03,-1.8z"/>
   <path opacity="0.1" fill="#43a0cb" transform="translate(-51.45 -39.57)" d="m419.88,206.34s-8.14,22.45 8.67,24.5a4.08,4.08 0 0 0 4.72,-0.82s-1.18,-0.39 -0.09,-2.57a10.7,10.7 0 0 0 0.82,-2.45a5.41,5.41 0 0 0 -0.35,-3.41l0,0s-0.75,-7.21 -10.51,-12.81c0,0 -1.75,-2.53 -2.36,-2.63l0.51,4.34s3.17,-0.49 5.18,1.23c0,0 -5,-1.35 -5.14,-0.58c0,0.16 0.37,2.29 0.37,2.29s5.52,-0.83 8.54,1.92c0,0 -5.78,-2.41 -8.39,-1.11l0.78,3.19s5.79,-1.17 9.34,1.84c0,0 -6.13,-2.32 -9.13,-1.16l1.19,3s5.67,-1 8.61,1.49c0,0 -7.35,-2 -8.29,-0.81a15.43,15.43 0 0 0 1.95,3.27s4.08,-0.64 5.66,1c0,0 -5.05,-0.79 -5.23,-0.26c0,0 2.58,3.1 4.72,4a12.17,12.17 0 0 1 -5.18,-3.54a6.74,6.74 0 0 0 0.73,3.74s-2.17,-1 -1.34,-4.54c0,0 -1.92,-2.5 -1.93,-3c0,0 -1.31,3.38 -1,5.75c0,0 -1.6,-2.48 0.66,-6.54l-1.26,-3s-2,4.37 -1.86,6.5c0,0 -1.24,-2.78 1.6,-7.29l-0.8,-3.11a25.18,25.18 0 0 0 -2.37,6s-0.59,-2.84 2.18,-6.94l-0.29,-2.15s-1.4,2.68 -1.74,3.49s-0.58,0.78 -0.58,0.78a10.35,10.35 0 0 1 2.18,-5.17s-0.29,-4.43 -0.57,-4.44z"/>
   <path opacity="0.1" fill="#43a0cb" transform="translate(-51.45 -39.57)" d="m577.92,187.43s-8.15,22.44 8.67,24.49a4.07,4.07 0 0 0 4.71,-0.81s-1.17,-0.39 -0.09,-2.58a10.77,10.77 0 0 0 0.86,-2.45a5.31,5.31 0 0 0 -0.36,-3.4l0,0s-0.75,-7.21 -10.51,-12.82c0,0 -1.74,-2.53 -2.35,-2.63l0.5,4.35s3.18,-0.5 5.18,1.22c0,0 -5,-1.35 -5.13,-0.57c0,0.15 0.37,2.29 0.37,2.29s5.52,-0.84 8.53,1.92c0,0 -5.77,-2.42 -8.39,-1.11l0.78,3.18s5.79,-1.17 9.35,1.84c0,0 -6.13,-2.32 -9.13,-1.15l1.19,3s5.67,-1 8.61,1.49c0,0 -7.35,-2 -8.29,-0.82a15.74,15.74 0 0 0 1.94,3.27s4.09,-0.64 5.67,1c0,0 -5.06,-0.79 -5.23,-0.27c0,0 2.58,3.1 4.72,4a12.24,12.24 0 0 1 -5.19,-3.55a6.72,6.72 0 0 0 0.73,3.79s-2.18,-1 -1.35,-4.55c0,0 -1.91,-2.49 -1.92,-3c0,0 -1.32,3.37 -1,5.75c0,0 -1.6,-2.49 0.67,-6.54l-1.27,-3s-2,4.37 -1.85,6.51c0,0 -1.24,-2.79 1.6,-7.3l-0.8,-3.11a24.93,24.93 0 0 0 -2.37,6s-0.6,-2.83 2.17,-6.94l-0.29,-2.14s-1.4,2.68 -1.73,3.48s-0.58,0.79 -0.58,0.79a10.24,10.24 0 0 1 2.18,-5.17s-0.33,-4.46 -0.6,-4.46z"/>
   <path opacity="0.1" fill="#43a0cb" transform="translate(-51.45 -39.57)" d="m319.69,159.31s-8.15,22.45 8.67,24.49a4.05,4.05 0 0 0 4.71,-0.81s-1.17,-0.39 -0.09,-2.57a11.27,11.27 0 0 0 0.86,-2.45a5.41,5.41 0 0 0 -0.36,-3.41l0,0s-0.75,-7.21 -10.51,-12.82c0,0 -1.74,-2.52 -2.35,-2.62l0.5,4.34s3.17,-0.49 5.18,1.23c0,0 -5,-1.36 -5.13,-0.58c0,0.16 0.37,2.29 0.37,2.29s5.52,-0.83 8.53,1.92c0,0 -5.78,-2.42 -8.39,-1.11l0.78,3.19s5.79,-1.17 9.34,1.84c0,0 -6.12,-2.32 -9.12,-1.16l1.19,3s5.67,-1 8.61,1.49c0,0 -7.36,-2 -8.29,-0.82a15.76,15.76 0 0 0 1.94,3.28s4.09,-0.65 5.66,1c0,0 -5.05,-0.79 -5.23,-0.26c0,0 2.59,3.09 4.73,4a12.14,12.14 0 0 1 -5.19,-3.55a6.72,6.72 0 0 0 0.73,3.79s-2.18,-1 -1.35,-4.54c0,0 -1.92,-2.5 -1.92,-3c0,0 -1.32,3.38 -1,5.75c0,0 -1.6,-2.48 0.66,-6.54l-1.26,-3s-2,4.38 -1.86,6.51c0,0 -1.24,-2.78 1.6,-7.29l-0.79,-3.12a24.93,24.93 0 0 0 -2.37,6s-0.6,-2.83 2.17,-6.94l-0.29,-2.14s-1.4,2.68 -1.73,3.49s-0.58,0.78 -0.58,0.78a10.28,10.28 0 0 1 2.17,-5.17s-0.28,-4.48 -0.59,-4.49z"/>
   <path opacity="0.1" fill="#43a0cb" transform="translate(-51.45 -39.57)" d="m570.05,311.59s6.29,23 21.21,15a4.07,4.07 0 0 0 3.38,-3.38s-1.18,0.35 -1.56,-2.06a10.79,10.79 0 0 0 -0.71,-2.49a5.43,5.43 0 0 0 -2.25,-2.58l0,0s-4.77,-5.45 -16,-4.41c0,0 -2.88,-1.06 -3.44,-0.79l2.92,3.26s2.3,-2.23 4.93,-2c0,0 -4.89,1.79 -4.52,2.48c0.07,0.14 1.62,1.66 1.62,1.66s4,-3.86 8.08,-3.35c0,0 -6.11,1.36 -7.5,3.93l2.48,2.16s4.06,-4.3 8.69,-3.89c0,0 -6.34,1.64 -8.12,4.32l2.72,1.79s4,-4.11 7.89,-3.75c0,0 -7.13,2.64 -7.24,4.11a15.77,15.77 0 0 0 3.48,1.56s3,-2.88 5.18,-2.47c0,0 -4.58,2.26 -4.42,2.8c0,0 3.89,1 6.15,0.52a12.15,12.15 0 0 1 -6.28,0.09a6.74,6.74 0 0 0 2.77,2.68s-2.36,0.43 -3.72,-2.94c0,0 -3,-0.93 -3.31,-1.35c0,0 0.87,3.51 2.5,5.27c0,0 -2.74,-1.1 -3.23,-5.72l-2.75,-1.71s0.9,4.71 2.23,6.39c0,0 -2.62,-1.56 -2.9,-6.88l-2.45,-2.08a25.25,25.25 0 0 0 1.55,6.3s-2.12,-2 -2.22,-6.93l-1.48,-1.58s0.4,3 0.6,3.85s0,1 0,1a10.29,10.29 0 0 1 -1.21,-5.48s-2.84,-3.49 -3.07,-3.33z"/>
   <path fill="url(#svg_2)" transform="translate(-51.45 -39.57)" d="m866.94,441.33a54.73,54.73 0 0 0 7.19,6.92l19.48,16.6c3.47,2.95 7,6 11.4,7.39a17.84,17.84 0 0 0 15.56,-2.39l-0.33,-0.11l0.33,-0.22c-3.29,-1.06 -6.66,-2.16 -9.37,-4.29a10.53,10.53 0 0 1 -4.12,-7l0,0c0,-0.14 0,-0.27 0,-0.41a7.32,7.32 0 0 1 0.11,-1.13a24.79,24.79 0 0 0 11.73,-4.13l-0.34,-0.12l0.34,-0.21c-10.38,-3.33 -17.57,-13.07 -20.83,-23.38s-3.27,-21.29 -3.62,-32.08s-1.15,-21.88 -5.81,-31.64c-1.75,-3.66 -4,-7.14 -4.85,-11.1a17.26,17.26 0 0 1 -0.33,-3.57c0.07,-3.85 1.19,-7.72 2.22,-11.48a239.26,239.26 0 0 0 5.48,-25.51a59.86,59.86 0 0 0 0.89,-9.25a23.77,23.77 0 0 0 -1.43,-8.89c-4.58,-11.9 -20.5,-17.51 -22.93,-30a26.26,26.26 0 0 1 -0.36,-5.09c0,-0.94 0,-1.87 0,-2.8s0,-2 -0.08,-2.92c-0.69,-8.79 -6.13,-16.42 -11.38,-23.55c-6.32,-8.58 -13,-17.5 -22.71,-22.07c-7.54,-3.57 -17.62,-4.75 -26.61,-3.95a69.23,69.23 0 0 0 -13.18,-8.95c-6.87,-3.82 -14,-7.58 -21.61,-8.42c-9.65,-1.06 -19.19,2.64 -28.87,3.26c-13.16,0.85 -26.08,-4 -39.24,-5s-28.31,3.43 -34.19,16.68a31.81,31.81 0 0 0 -2.48,10.13l0,0c-0.06,0.67 -0.1,1.33 -0.13,2l0,0.07a62.93,62.93 0 0 0 0.23,8.11l0,0.31c0,0.54 0.1,1.08 0.16,1.62c0,0.16 0,0.31 0.05,0.47c0,0.5 0.11,1 0.17,1.5l0.06,0.47c0.08,0.63 0.17,1.26 0.25,1.89a20.13,20.13 0 0 0 0.83,3.82a7.18,7.18 0 0 0 1.06,2c1.43,1.82 3.58,2.36 5.8,2.7l1.75,0.25c-0.18,0.36 -0.37,0.72 -0.54,1.09a62.17,62.17 0 0 0 -6,26.77c0,31.46 23.29,57.54 53.72,62.28l1.83,2.28c11.22,14.06 25.3,32.83 32,46.34c-7.74,9.61 -16.8,26.65 -19.38,55.23l-3.83,8.94c-8.03,11.55 -10.1,28.21 -8.03,43.71c-2.26,8.38 -4.84,18.91 -6.63,27.62c-13.31,-2.95 -58.74,-10.25 -69.48,-17.34l-31.5,-14.84s-41,-28.64 -63.06,-19.08c-8.43,-10.36 -21.15,-21.21 -26.63,-25.31c-9.4,-7.05 -32.78,-34.59 -32.78,-34.59l-36.63,-48.62c-0.1,-5.63 -0.7,-10.44 -2.24,-12.51c-4.32,-5.78 -27.19,-18.61 -31.76,-15.84s-8.39,-6 -8.39,-6l-0.35,-0.19c-0.86,-0.5 -3.3,-1.88 -6.69,-3.7a88.88,88.88 0 0 1 0.3,-12.17c0.07,-0.68 0.16,-1.36 0.26,-2a55.75,55.75 0 0 0 52.16,-42.54c0.16,-0.63 0.27,-1.28 0.4,-1.92a9.83,9.83 0 0 0 9.23,-2.68c3.2,-3.44 3.34,-8.73 2.32,-13.29s-3,-8.93 -3.5,-13.59c-0.63,-6.35 1.61,-13 -0.45,-19c-1.73,-5.12 -6.29,-8.84 -11.15,-11.27s-10.18,-3.85 -15.15,-6.06c-4.74,-2.1 -9.15,-4.92 -14.07,-6.58c-6.38,-2.15 -13.24,-2.23 -20,-2.07c-4.24,-1.71 -8.56,-3.34 -13.1,-3.85c-5,-0.57 -10.5,0.4 -14.31,3.73c-3,2.66 -5.44,6.93 -9.51,7.07c-2,0.07 -3.8,-0.92 -5.58,-1.77c-5.05,-2.42 -11.44,-3.79 -16,-0.58c-3.66,2.56 -5,7.27 -5.63,11.66s-0.74,9 -2.86,12.93c-1.31,2.42 -3.3,4.39 -4.95,6.59a28.32,28.32 0 0 0 -5.53,19.46l0,0.2c-0.24,-1 -0.47,-1.93 -0.64,-2.91c0,0.74 0,1.47 0.1,2.21a56.91,56.91 0 0 0 2.23,10.11l4.14,14.5c2.1,7.36 4.25,14.83 8.25,21.38a35.21,35.21 0 0 0 5.61,7.05a25.91,25.91 0 0 0 12.57,7.29a16.11,16.11 0 0 0 5.14,0.31c0,0.21 -0.05,0.41 -0.09,0.62c-0.37,-0.07 -0.75,-0.15 -1.1,-0.2a10.68,10.68 0 0 0 -4.91,0.13c-7.9,2.81 -10.3,11.36 -11,14.72c-0.16,0.86 -0.21,1.38 -0.21,1.38s0.13,0.5 0.28,1.35l-0.07,0.29c-0.16,0.85 -0.21,1.38 -0.21,1.38s0.13,0.5 0.28,1.37l-2.06,0.05l-34.45,4.5c-7.87,-0.54 -15.36,-0.67 -19.37,0.29a8,8 0 0 0 -1,0.29c-5,1.73 -27.91,17.54 -48.47,32.09c0,-0.4 0,-0.79 -0.06,-1.17l-5.85,4.16c0,0.39 0,0.8 0,1.21c-1.46,1 -2.91,2.06 -4.31,3.07c-6.29,4.5 -12,8.56 -16.25,11.67c-5.18,3.72 -8.39,6.07 -8.39,6.07s-1.9,0.62 -3.16,3.55c-1.62,3.75 -2.18,11.29 3.67,26.13c10.42,26.41 12.7,44.27 12.7,44.27a31.82,31.82 0 0 0 -8.25,2c-3.61,1.44 -7.38,3.88 -8.95,8a13.77,13.77 0 0 0 -0.07,8.9c4.82,17.1 84.61,114.2 84.61,114.2l1,0.09a70.1,70.1 0 0 0 12.3,0c3.73,-0.39 7.22,-1.28 8.82,-3.16c0,0 17.69,22.71 43.67,7.24c-0.18,20.6 -0.7,35.71 2.57,43.32c5.09,11.82 5.09,38.73 5.09,38.73l4.84,0.17c-0.26,1 -0.55,2 -0.86,3c-2.23,7.37 -5.52,16.28 -9,18.41c-5.86,3.6 -3.08,65.48 -2.84,70.82l0,0c0,0.21 0,0.32 0,0.32l-0.34,25l0,2a24.22,24.22 0 0 1 -1.95,-3.08s-9.42,9 -9.59,28s0.17,19.64 0.17,19.64s38,-1.47 45.13,1.15s66.76,-2.28 66.76,-2.28s2.21,-5.74 -4.15,-10.15c10.14,-0.73 21.2,-2.67 27.68,-7.37c14.25,-10.29 -28.75,-18.31 -31.75,-19.94s-17.86,-14.74 -24,-19.65a12.48,12.48 0 0 0 -6.34,-2.36l0.77,-22.41c9.15,-10.31 19.06,-67.16 19.06,-67.16c3.24,-2.7 4.65,-9.27 5.23,-13.28a6.09,6.09 0 0 0 4.17,-5.59l0,0c10.47,0.35 23.64,0.27 26.17,-2.24c4.32,-4.28 3.81,-18.87 3.81,-18.87l-6.1,-154.44l-0.4,-0.59a77,77 0 0 0 0.06,-21.32c13.7,3.91 24.36,6.57 24.36,6.57s20.62,3.8 35.09,7a23.65,23.65 0 0 0 -5.24,8.8c-13,37 60.73,35.47 60.73,35.47l34.81,16.1l81.94,26.78c-26.33,-7.77 -56.41,-16.91 -76.88,-23.18a53.77,53.77 0 0 0 -6.14,-1.49c-18.78,-3.4 -38.29,3.44 -50.25,18.53c-0.14,0.19 -0.27,0.36 -0.42,0.54a22,22 0 0 0 -0.52,26.11c3.13,4.43 7.32,10.32 12.23,17.17c-10.39,3.14 -27.58,11.89 -17.13,34.39c14.48,31.19 53.35,49 53.35,49s25.41,7.3 32,15.35c1.85,2.26 9,7.27 18.35,13.31c6,6.35 10.7,10.5 13.49,11.42c11.14,3.67 32.83,21.28 48.09,34.49l-2.29,31.56l-0.15,1.9l-0.94,-0.8s-6.75,14 -26.31,18.69a16.75,16.75 0 0 0 -9.79,6.38l-0.07,0.09l-0.58,0.84l-0.44,-0.33c-4,5.63 -5.86,13.83 9.24,16.09c23.63,3.52 50,-1.51 50,-1.51l23.56,-21.78a23.14,23.14 0 0 0 9,4.67c17.61,4 67.07,23.14 67.07,23.14c0,-5.37 43.71,-74.45 43.71,-74.45c59,-111.68 -5.16,-195.14 -12.25,-203.83l-0.63,-0.76l-0.55,-9.28l-0.12,-2.13s31.84,-14.08 19.64,-20.78s-19,-38.91 -30.49,-52.32c-9,-10.46 -8.48,-34.74 -9.43,-55.43a33.31,33.31 0 0 0 6.47,14c0.07,0.09 0.15,0.16 0.22,0.25l-0.85,-0.74c0.21,0.32 0.41,0.6 0.63,0.87zm-392.33,-8.58c4.1,4.41 11.26,10.05 16,13.63c-5.68,-2.77 -10.1,-5.11 -13.51,-7c-0.8,-2.22 -1.64,-4.44 -2.49,-6.63zm-121.29,-104.65a16.53,16.53 0 0 1 -5.15,7.51l-2,-8.63c2.62,0.42 5.06,0.81 7.15,1.12zm520.97,341.76c0.79,-1.7 1.61,-3.37 2.44,-5a18.75,18.75 0 0 0 8.89,-6.18a126.93,126.93 0 0 1 3.86,18.46c0,0.29 0,0.45 0,0.45a28.16,28.16 0 0 1 -1.13,7.43c-0.92,2.92 -2.6,5.67 -5.65,6c-1.27,0.13 -7.52,-1.38 -16.87,-3.93c-2.71,-0.74 -5.69,-1.57 -8.87,-2.47c-116.3,-104.98 -109.36,-107.79 -103.96,-119.41l121.29,104.65zm-321.43,-448.11c-1.87,-3 -5.77,-4.92 -10.54,-6.05c-0.87,-0.58 -2.22,-1.5 -3.94,-2.75c-8.4,-6.15 -25.17,-20 -32.86,-37.69a42.35,42.35 0 0 0 6.26,-2.29a45.27,45.27 0 0 0 8.84,-5.35c0.92,-0.72 1.82,-1.47 2.68,-2.25a46.68,46.68 0 0 0 6,-6.55c0.71,-1 1.4,-1.95 2,-3a46.09,46.09 0 0 0 2.66,-4.78a59.58,59.58 0 0 0 4.19,-12c0.39,-1.66 0.73,-3.35 1,-5.05s0.53,-3.41 0.72,-5.13a144.82,144.82 0 0 0 0.71,-18.27c0,-0.29 0,-0.59 0,-0.88c0,-0.11 0,-0.22 0,-0.32l0,0a89.38,89.38 0 0 0 -2,-18.39c0.45,0.17 0.9,0.34 1.33,0.54a13.46,13.46 0 0 1 2.06,1.25c-0.16,-0.23 -0.34,-0.46 -0.51,-0.69c2.9,1.88 5.06,4.81 7,7.73a110.37,110.37 0 0 1 11.84,94.39c-1.46,4.29 -3.21,8.56 -3.6,13.07c-1.41,16.11 14,28.4 19.73,43.54c2.87,7.59 3.32,16 3.7,24.32c274.07,111.39 258.28,90.65 251.15,79.1l-278.42,-132.5z"/>
   <path fill="#ffc1c8" transform="translate(-51.45 -39.57)" d="m449,672.77s-0.75,12.5 -5.5,16.5c0,0 -9.75,56.5 -18.75,66.75l-1.5,5.75l-37.5,-4.25l7.5,-50l7,-46l48.75,11.25z"/>
   <path opacity="0.03" transform="translate(-51.45 -39.57)" d="m449,672.77s-0.75,12.5 -5.5,16.5c0,0 -9.75,56.5 -18.75,66.75l-1.5,5.75l-37.5,-4.25l7.5,-50l7,-46l48.75,11.25z"/>
   <polygon fill="#ff748f" points="357.14 717.15 373.3 716.44 372.44 741.88 360.07 750.17 337.79 745.29 345.92 711.29 357.14 717.15"/>
   <polygon opacity="0.03" points="357.14 717.15 373.3 716.44 372.44 741.88 360.07 750.17 337.79 745.29 345.92 711.29 357.14 717.15"/>
   <path fill="#5d618c" transform="translate(-51.45 -39.57)" d="m411.52,779.5s12.69,-3.74 18.71,1.14s20.66,17.89 23.59,19.52s45.18,9.6 31.23,19.84s-49.77,7.32 -49.77,7.32s-23.43,-6.84 -24.08,-7.16s-15,-7.32 -15.45,-7.81s4.06,-33 4.06,-33l11.71,0.15z"/>
   <path opacity="0.03" transform="translate(-51.45 -39.57)" d="m411.52,779.5s12.69,-3.74 18.71,1.14s20.66,17.89 23.59,19.52s45.18,9.6 31.23,19.84s-49.77,7.32 -49.77,7.32s-23.43,-6.84 -24.08,-7.16s-15,-7.32 -15.45,-7.81s4.06,-33 4.06,-33l11.71,0.15z"/>
   <path fill="#43a0cb" transform="translate(-51.45 -39.57)" d="m374.75,441.52l-0.75,46.48l-1.7,99.15l-1,0.87c-29.75,25.75 -50.75,-1.5 -50.75,-1.5c-1.58,1.87 -5,2.76 -8.68,3.14a67.84,67.84 0 0 1 -12.1,0l-1,-0.09s-78.52,-96.57 -83.27,-113.57a13.86,13.86 0 0 1 0.07,-8.84c1.55,-4.06 5.26,-6.48 8.81,-7.91a31.08,31.08 0 0 1 8.12,-2s-2.25,-17.75 -12.5,-44c-5.76,-14.75 -5.2,-22.24 -3.61,-26c1.24,-2.91 3.11,-3.53 3.11,-3.53s3.16,-2.33 8.25,-6c4.23,-3.09 9.8,-7.13 16,-11.6l5.75,-4.12c21.21,-15.22 46.77,-33.14 52,-35a7.64,7.64 0 0 1 1,-0.29c10.73,-2.59 46.74,2.79 46.74,2.79l25.51,112.02z"/>
   <path fill="none" transform="translate(-51.45 -39.57)" d="m374.75,441.52l-0.75,46.48c-35.57,-10.49 -68.64,-80 -73,-85.48c-3.73,-4.76 0.1,-57.77 1.51,-75.79c10.73,-2.59 46.74,2.79 46.74,2.79l25.5,112z"/>
   <path opacity="0.1" transform="translate(-51.45 -39.57)" d="m374.75,441.52l-0.75,46.48c-35.57,-10.49 -68.64,-80 -73,-85.48c-3.73,-4.76 0.1,-57.77 1.51,-75.79c10.73,-2.59 46.74,2.79 46.74,2.79l25.5,112z"/>
   <path fill="#ffc1c7" transform="translate(-51.45 -39.57)" d="m783,351s-27.75,14.25 -31.25,70.25c0,0 -4.5,28.5 -7,33.5s-14.5,52.25 -13,58c0,0 -2.5,5.75 -11.75,3.25s-59.25,-10.25 -70.5,-17.75l-31,-14.75s-60.5,-42.75 -73.25,-6s59.75,35.27 59.75,35.27l34.25,16l103.75,34.23s13.75,6.25 23,-13.75a234.68,234.68 0 0 1 21,-36s21,-59 20.75,-69s22.5,-33.75 22.5,-33.75s4.5,-63 -32.5,-61.75l-14.75,2.25z"/>
   <path opacity="0.03" transform="translate(-51.45 -39.57)" d="m783,351s-27.75,14.25 -31.25,70.25c0,0 -4.5,28.5 -7,33.5s-14.5,52.25 -13,58c0,0 -2.5,5.75 -11.75,3.25s-59.25,-10.25 -70.5,-17.75l-31,-14.75s-60.5,-42.75 -73.25,-6s59.75,35.27 59.75,35.27l34.25,16l103.75,34.23s13.75,6.25 23,-13.75a234.68,234.68 0 0 1 21,-36s21,-59 20.75,-69s22.5,-33.75 22.5,-33.75s4.5,-63 -32.5,-61.75l-14.75,2.25z"/>
   <path fill="#ffc1c8" transform="translate(-51.45 -39.57)" d="m489.5,399.64c1.5,1.75 8.5,5.36 8.5,5.36s23,27.37 32.25,34.37s39.5,33.75 33.38,43.88s-13,7.87 -13,7.87l-54.13,-37.5s-19,-13.62 -22.87,-20.12s-8.63,-20.11 -8.63,-20.11l24.5,-13.75z"/>
   <path opacity="0.03" transform="translate(-51.45 -39.57)" d="m489.5,399.64c1.5,1.75 8.5,5.36 8.5,5.36s23,27.37 32.25,34.37s39.5,33.75 33.38,43.88s-13,7.87 -13,7.87l-54.13,-37.5s-19,-13.62 -22.87,-20.12s-8.63,-20.11 -8.63,-20.11l24.5,-13.75z"/>
   <polygon fill="#dce6f2" points="407.68 313.32 446.55 365.44 411.55 379.07 397.05 335.44 407.68 313.32"/>
   <polygon opacity="0.03" points="407.68 313.32 446.55 365.44 411.55 379.07 397.05 335.44 407.68 313.32"/>
   <path fill="#575988" transform="translate(-51.45 -39.57)" d="m469.25,485.77l7,10.25l6,153.5s0.5,14.5 -3.75,18.75s-39,1.5 -39,1.5s1.25,-156.5 1.75,-159.5s28,-24.5 28,-24.5z"/>
   <path opacity="0.1" transform="translate(-51.45 -39.57)" d="m469.25,485.77l7,10.25l6,153.5s0.5,14.5 -3.75,18.75s-39,1.5 -39,1.5s1.25,-156.5 1.75,-159.5s28,-24.5 28,-24.5z"/>
   <path fill="#ffc1c8" transform="translate(-51.45 -39.57)" d="m422.44,679.81a126.86,126.86 0 0 1 -8,16.24s-6.5,37.09 -9.27,40.51c-2,2.5 -2.92,21.16 -3.25,30.89c-0.12,3.52 -0.17,5.87 -0.17,5.87l-38.22,18.22l-0.17,-24.08s0,-0.11 0,-0.32l0,0c-0.24,-5.31 -3,-66.81 2.79,-70.39c3.4,-2.11 6.64,-11 8.83,-18.29c1.67,-5.63 2.72,-10.34 2.72,-10.34s42.46,-2.76 46,1.79c1.3,1.62 0.4,5.56 -1.26,9.9z"/>
   <path opacity="0.1" transform="translate(-51.45 -39.57)" d="m422.44,679.81c-17.22,-0.36 -38.8,-1.09 -47.52,-1.4c1.67,-5.63 2.72,-10.34 2.72,-10.34s42.46,-2.76 46,1.79c1.36,1.67 0.46,5.61 -1.2,9.95z"/>
   <path fill="#575988" transform="translate(-51.45 -39.57)" d="m372.25,452.27s-11.75,62.5 -9.5,102.75s-1.75,69.98 3.25,81.75s5,38.5 5,38.5s68,2.5 75,1.5s6.75,-6.25 6.75,-6.25s-4.75,-41.52 -0.25,-54.52s3.75,-52.75 3.75,-52.75l19,-64s5.75,-28.75 -6.25,-40.5s-96.75,-6.48 -96.75,-6.48z"/>
   <path fill="#ffc1c7" transform="translate(-51.45 -39.57)" d="m775.75,782.52l-3,4.4l-18.55,27.6l-15.75,4.75l-11.75,-11.5l0.57,-7.59l2.93,-39.41s-72.7,-42.77 -79.2,-50.77s-31.5,-15.25 -31.5,-15.25s-38.25,-17.75 -52.5,-48.75s23.75,-35.75 23.75,-35.75l142.75,136.52l42.25,35.75z"/>
   <polygon opacity="0.1" points="721.35 747.34 702.8 774.94 687.05 779.69 675.3 768.19 675.87 760.6 688.8 771.69 713.05 743.44 721.35 747.34"/>
   <path fill="#575988" transform="translate(-51.45 -39.57)" d="m793.25,798.52l-45.25,42.25s-26,5 -49.25,1.5c-14.86,-2.24 -12,-10.39 -8.09,-16l0.07,-0.1a16.44,16.44 0 0 1 9.64,-6.34c19.24,-4.64 25.88,-18.57 25.88,-18.57l14,12l24.25,-28.26l17.93,8.42l10.82,5.1z"/>
   <path fill="#fff" transform="translate(-51.45 -39.57)" d="m793.25,799l-45.25,42.27s-26,5 -49.25,1.5c-14.86,-2.24 -13,-10.39 -9.09,-16a31,31 0 0 0 15.59,6.49c12.75,1.25 32,0 32,0l45.18,-39.33l10.82,5.07z"/>
   <path fill="#ffc1c8" transform="translate(-51.45 -39.57)" d="m419.67,292.6c-3.68,1.84 -5.37,7.52 -6.05,14c-1.15,11.06 0.71,24.38 0.71,24.38s-50,-13.67 -44.66,-16.34c3.07,-1.53 4.7,-12.67 5.53,-21.84c0.62,-6.78 0.8,-12.49 0.8,-12.49s53.67,7.29 43.67,12.29z"/>
   <path fill="#ffc1c7" transform="translate(-51.45 -39.57)" d="m817.67,353.27s-60.67,57.33 -58.67,40.67c0.28,-2.32 -0.52,-5.53 -2.1,-9.32c-5.61,-13.52 -21.12,-34.51 -33.25,-49.86c-8.9,-11.26 -16,-19.49 -16,-19.49s75.35,-63.33 69.35,-27.33a43.19,43.19 0 0 0 3.29,24.18c7.51,17.68 24.15,31.59 32.46,37.73c3,2.21 4.92,3.42 4.92,3.42z"/>
   <path opacity="0.1" transform="translate(-51.45 -39.57)" d="m768.67,298.93c-1.09,1.35 -5.13,6.09 -6.33,7.34c-11.4,11.87 -12.92,29 -30.67,29a62.34,62.34 0 0 1 -8,-0.51c-8.9,-11.26 -16,-19.49 -16,-19.49s75.33,-63.33 69.33,-27.33c-1.42,8.54 -11.5,3.51 -8.33,10.99z"/>
   <path fill="#ffc1c7" transform="translate(-51.45 -39.57)" d="m794.33,270.6a62.67,62.67 0 1 1 -62.66,-62.66a62.42,62.42 0 0 1 62.66,62.66z"/>
   <path opacity="0.1" transform="translate(-51.45 -39.57)" d="m817.67,353.27s-60.67,57.33 -58.67,40.67c0.28,-2.32 -0.52,-5.53 -2.1,-9.32l8.77,-20.68a59.33,59.33 0 0 1 38.81,-14.7a56.46,56.46 0 0 1 7.77,0.53l0.5,0.08c3,2.21 4.92,3.42 4.92,3.42z"/>
   <path fill="#ff6584" transform="translate(-51.45 -39.57)" d="m889,773.27s-43,68.66 -43,74c0,0 -48.67,-19 -66,-23s-33.67,-40.33 -33.67,-40.33s-46,-43.34 -64,-49.34c-15.27,-5.09 -88.65,-108.6 -110.51,-139.83a22,22 0 0 1 0.52,-25.95l0.41,-0.53a51.09,51.09 0 0 1 49.44,-18.42a51.62,51.62 0 0 1 6,1.48c31.48,9.73 86,26.45 113.5,34c9.2,2.53 15.35,4 16.6,3.91c3,-0.31 4.65,-3 5.56,-5.95a28.28,28.28 0 0 0 1.11,-7.38s0,-0.16 0,-0.45a126.85,126.85 0 0 0 -3.96,-18.8c-3.21,-11 -8.77,-23.91 -18,-30.08c-7.66,-5.11 -13.75,-16.38 -16.94,-29.48c-4.29,-17.69 -3.3,-38.74 6.27,-52.52l9.25,-21.82l15.47,-36.5l8.62,-20.34a59.33,59.33 0 0 1 38.81,-14.7a56.46,56.46 0 0 1 7.77,0.53c6.63,0.92 12.36,2.91 14.75,6.83c7.33,12 24,34 27.33,56s-0.66,58 10.67,71.34s18,45.33 30,52s-19.33,20.66 -19.33,20.66l0.12,2.11l0.54,9.23s0.22,0.25 0.62,0.75c6.98,8.64 70.05,91.59 12.05,202.58z"/>
   <path fill="#575988" transform="translate(-51.45 -39.57)" d="m877,570.69c-13.14,2.75 -41.88,8.74 -54.7,11.37l-2.25,0.46c-0.75,0.15 -1.59,0.29 -2.5,0.42c-12.88,1.77 -40.82,0.9 -53.61,0.38a28.28,28.28 0 0 0 1.11,-7.38s0,-0.16 0,-0.45c9.73,-0.63 32.79,-2.47 52.55,-6.53c1.61,-0.33 3.2,-0.68 4.75,-1c2.24,-0.52 4.42,-1.07 6.5,-1.65c17.72,-5 36.43,-5.66 47,-5.56l0.54,9.23s0.16,0.21 0.61,0.71z"/>
   <path fill="#ff6584" transform="translate(-51.45 -39.57)" d="m822.25,567.92l0,14.14l-2.25,0.46c-0.75,0.15 -1.59,0.29 -2.5,0.42l0,-13.94c1.61,-0.37 3.2,-0.72 4.75,-1.08z"/>
   <path opacity="0.1" transform="translate(-51.45 -39.57)" d="m834.5,595s-26.75,61.25 -43,67.25s-56.75,27.25 -56.75,27.25s23.25,20.5 47.5,-2s59.25,-82.5 52.25,-92.5z"/>
   <path opacity="0.1" transform="translate(-51.45 -39.57)" d="m863.75,586.77s2.5,23.25 -1,27.5s1,-27.5 1,-27.5z"/>
   <path opacity="0.1" transform="translate(-51.45 -39.57)" d="m878.25,602s13.5,141.5 -53.5,142.25c0,0.02 62.75,-62.25 53.5,-142.25z"/>
   <path opacity="0.1" transform="translate(-51.45 -39.57)" d="m895.25,636s19.25,74.25 -6,82.75c0,0.02 13.25,-38.48 6,-82.75z"/>
   <path opacity="0.1" transform="translate(-51.45 -39.57)" d="m775.5,617c-1.25,0 -52,8.75 -41,15.75s41,-15.75 41,-15.75z"/>
   <path opacity="0.1" transform="translate(-51.45 -39.57)" d="m810.5,516.77s41.5,36.75 33.5,40.75"/>
   <path opacity="0.1" transform="translate(-51.45 -39.57)" d="m807,528.52s24,29.5 21.25,31.25"/>
   <path opacity="0.1" transform="translate(-51.45 -39.57)" d="m858.25,524s11,13.75 9.25,16.75"/>
   <path opacity="0.1" transform="translate(-51.45 -39.57)" d="m869.25,516.77s15.75,12.23 12.25,17"/>
   <path fill="#ffc1c7" transform="translate(-51.45 -39.57)" d="m781.75,367.77s51.25,4 49,45.25s-40.5,51.75 -40.5,51.75l-49.75,-14.25s22.25,-80 41.25,-82.75z"/>
   <path opacity="0.1" transform="translate(-51.45 -39.57)" d="m628.23,551.35c31.48,9.73 86,26.45 113.5,34a14.54,14.54 0 0 1 -11.73,0.65l-103.75,-34.23l-4.06,-1.9a51.62,51.62 0 0 1 6.04,1.48z"/>
   <path opacity="0.1" transform="translate(-51.45 -39.57)" d="m803.8,449.39c-4.87,6.5 -9.16,13.5 -9,17.88c0.08,3.15 -2,11.18 -4.78,20.69a345.87,345.87 0 0 1 -29,68.72c-3.21,-11 -8.77,-23.91 -18,-30.08c-7.66,-5.11 -13.75,-16.38 -16.94,-29.48c2.43,-9.48 4.74,-17.45 5.69,-19.35c2.5,-5 7,-33.5 7,-33.5a149.76,149.76 0 0 1 2.83,-21.49c3.63,-17.33 9.8,-29 15.47,-36.5c6.84,-9.12 13,-12.26 13,-12.26l14.75,-2.25c17,-0.57 25.2,12.36 29.15,26.53c4.84,17.61 0.79,36.45 -10.17,51.09z"/>
   <path fill="#ffc1c7" transform="translate(-51.45 -39.57)" d="m767,370s-27.75,14.25 -31.25,70.25c0,0 -4.5,28.5 -7,33.5s-14.5,52.25 -13,58c0,0 -2.5,5.75 -11.75,3.25s-59.25,-10.25 -70.5,-17.75l-31,-14.75s-60.5,-42.75 -73.25,-6s59.75,35.27 59.75,35.27l34.25,16l103.75,34.23s13.75,6.25 23,-13.75c2.31,-5 4.78,-9.75 7.19,-14.07a347.65,347.65 0 0 0 29.81,-70.18c2.83,-9.51 4.86,-17.54 4.78,-20.69c-0.11,-4.38 4.19,-11.39 9,-17.88c11,-14.64 15,-33.48 10.1,-51.1c-3.95,-14.17 -12.19,-27.1 -29.15,-26.52l-14.73,2.19z"/>
   <path opacity="0.1" transform="translate(-51.45 -39.57)" d="m419.67,292.6c-3.68,1.84 -5.37,7.52 -6.05,14c-0.65,0 -1.3,0 -1.95,0a54.7,54.7 0 0 1 -36.47,-13.84c0.62,-6.78 0.8,-12.49 0.8,-12.49s53.67,7.33 43.67,12.33z"/>
   <path fill="#ffc1c8" transform="translate(-51.45 -39.57)" d="m466.67,249.6a55,55 0 1 1 -55,-55a55.12,55.12 0 0 1 55,55z"/>
   <path opacity="0.1" transform="translate(-51.45 -39.57)" d="m485.25,465s-28.75,11.5 -37.75,15.5s-60.5,-5.25 -60.5,-5.25s-26.75,-13.5 -24.5,-27s-21.5,-57.73 -21.5,-57.73s-0.75,-39.25 9.75,-46.75s6.5,-23.25 6.5,-23.25s0.05,-0.52 0.21,-1.37c0.65,-3.34 3,-11.84 10.79,-14.63a10.34,10.34 0 0 1 4.83,-0.13c7.47,1.13 19.74,6.69 29.89,11.82c8.4,4.25 15.35,8.2 16.94,9.12l0.34,0.19s3.75,8.75 8.25,6s27,10 31.25,15.75s1.25,32.75 0.5,39.5s4.25,26.75 9.75,38.23s15.25,40 15.25,40z"/>
   <path fill="#dce6f2" transform="translate(-51.45 -39.57)" d="m485.25,462s-28.75,11.5 -37.75,15.5s-60.5,-5.25 -60.5,-5.25s-26.75,-13.5 -24.5,-27s-21.5,-57.73 -21.5,-57.73s-0.75,-39.25 9.75,-46.75s6.5,-23.25 6.5,-23.25s0.05,-0.52 0.21,-1.37c0.65,-3.34 3,-11.84 10.79,-14.63a10.34,10.34 0 0 1 4.83,-0.13c7.47,1.13 19.74,6.69 29.89,11.82c8.4,4.25 15.35,8.2 16.94,9.12l0.34,0.19s3.75,8.75 8.25,6s27,10 31.25,15.75s1.25,32.75 0.5,39.5s4.25,26.75 9.75,38.23s15.25,40 15.25,40z"/>
   <path fill="#575988" transform="translate(-51.45 -39.57)" d="m392.17,423.6s-24.67,40 -28.67,42.17l1.5,14s35.17,-7.34 37.34,-17.17s1,-39.5 1,-39.5l-11.17,0.5z"/>
   <path opacity="0.2" transform="translate(-51.45 -39.57)" d="m392.17,423.6s-24.67,40 -28.67,42.17l1.5,14s35.17,-7.34 37.34,-17.17s1,-39.5 1,-39.5l-11.17,0.5z"/>
   <path opacity="0.1" transform="translate(-51.45 -39.57)" d="m426.88,372.64s4.37,16.88 11.25,22.63s-11.25,-22.63 -11.25,-22.63z"/>
   <path fill="#ffc1c8" transform="translate(-51.45 -39.57)" d="m384,417.14c0.63,1.13 21.75,29.88 44,40.5s71.88,23.13 71.88,23.13s40.25,7.5 47.12,10.37s15.63,-10 -27.5,-28.37s-51.5,-26.5 -51.5,-26.5s-37.5,-18.27 -43.5,-27.27s-40.5,8.14 -40.5,8.14z"/>
   <path opacity="0.1" transform="translate(-51.45 -39.57)" d="m399.75,557c0.75,-0.5 18.75,-19.75 21,-11.5s-21,11.5 -21,11.5z"/>
   <path opacity="0.1" transform="translate(-51.45 -39.57)" d="m410.25,519c-0.25,0.75 -2.75,22 -10,24.5"/>
   <path opacity="0.1" transform="translate(-51.45 -39.57)" d="m417.75,524.77s-6.5,22.75 -14.75,24.23"/>
   <path opacity="0.1" transform="translate(-51.45 -39.57)" d="m384.75,593s11,0.25 12.5,-6.75"/>
   <path opacity="0.1" transform="translate(-51.45 -39.57)" d="m399.75,638.52c1.5,0.25 25,15.25 19,18.25s-19,-18.25 -19,-18.25z"/>
   <path opacity="0.1" transform="translate(-51.45 -39.57)" d="m401.88,765.14l0,2.31c-0.12,3.52 -0.17,5.87 -0.17,5.87l-38.22,18.22l-0.17,-24.08s0,-0.11 0,-0.32l0,0l0,-1.63l15.3,0.49l23.26,-0.86z"/>
   <polygon fill="#ff748f" points="357.58 760.58 325.7 772.78 311.39 764.32 311.54 752.74 311.87 727.88 327.17 728.37 350.43 727.56 350.43 744.97 357.58 760.58"/>
   <path opacity="0.1" transform="translate(-51.45 -39.57)" d="m409,800.16l-31.88,12.2l-14.31,-8.46l0.15,-11.58a23.17,23.17 0 0 0 17.58,9.1s11.22,-14 18.05,-18.06a4.17,4.17 0 0 1 3.26,-0.44l0,1.63l7.15,15.61z"/>
   <path fill="#5d618c" transform="translate(-51.45 -39.57)" d="m380.57,803.41s-13,0.17 -19.52,-12.2c0,0 -9.27,8.95 -9.44,27.82s0.17,19.52 0.17,19.52s37.41,-1.46 44.41,1.14s65.72,-2.28 65.72,-2.28s3.9,-10.25 -13.83,-13.83s-32.37,-22.45 -32.86,-23.26s-9.76,-19 -16.59,-15s-18.06,18.09 -18.06,18.09z"/>
   <path opacity="0.1" transform="translate(-51.45 -39.57)" d="m415.05,188.84l-3.73,-0.51l2.33,-0.06l1.4,0.57z"/>
   <path opacity="0.1" transform="translate(-51.45 -39.57)" d="m466.67,249.6a55.12,55.12 0 0 1 -1.47,12.67a8.8,8.8 0 0 1 -2.37,-1c-1.07,-0.69 -2.14,-1.64 -3.4,-1.53a4.05,4.05 0 0 0 -2,0.92c-5.92,4.33 -10.32,11.45 -17.52,12.83a11.56,11.56 0 0 0 0.28,-6.54a13.53,13.53 0 0 1 -11.85,3.8a5.71,5.71 0 0 0 0.17,-3.93a114.77,114.77 0 0 1 -15.79,7.33c-0.19,-1 -0.37,-1.92 -0.56,-2.88c-7.66,3.74 -7.06,16.43 -14.72,20.17c-4.56,2.23 -11,0.63 -14.15,4.65c-0.12,0.16 -0.23,0.32 -0.34,0.49a55,55 0 1 1 83.7,-46.93l0.02,-0.05z"/>
   <path fill="#794f6a" transform="translate(-51.45 -39.57)" d="m415.05,186.83c-4.62,-1.91 -9.31,-3.83 -14.28,-4.4s-10.33,0.4 -14.08,3.71c-3,2.64 -5.35,6.88 -9.35,7c-1.95,0.07 -3.75,-0.91 -5.5,-1.76c-5,-2.4 -11.25,-3.76 -15.76,-0.58c-3.6,2.55 -4.95,7.23 -5.54,11.6s-0.73,9 -2.81,12.85c-1.29,2.4 -3.25,4.36 -4.87,6.55a28.3,28.3 0 0 0 -5.44,19.34a56.14,56.14 0 0 0 2.18,10.05l4.08,14.41c2.07,7.32 4.18,14.74 8.12,21.25s10,12.11 17.4,13.79c4.46,1 9.86,0.18 12.36,-3.65c0.64,-1 1.05,-2.07 1.75,-3c3.1,-4 9.59,-2.41 14.15,-4.64c7.66,-3.74 7.06,-16.43 14.72,-20.17l0.57,2.87a116.35,116.35 0 0 0 15.78,-7.32a5.77,5.77 0 0 1 -0.16,3.93a13.57,13.57 0 0 0 11.84,-3.8a11.56,11.56 0 0 1 -0.28,6.54c7.2,-1.39 11.6,-8.51 17.52,-12.84a4.13,4.13 0 0 1 2,-0.91c1.27,-0.11 2.33,0.84 3.4,1.52a9.58,9.58 0 0 0 11.84,-1.51c3.15,-3.42 3.29,-8.68 2.28,-13.22s-3,-8.87 -3.43,-13.5c-0.63,-6.31 1.57,-12.9 -0.45,-18.9c-1.71,-5.09 -6.19,-8.78 -11,-11.2s-10,-3.83 -14.91,-6c-4.66,-2.09 -9,-4.89 -13.84,-6.54c-7,-2.39 -14.61,-2.2 -22,-2"/>
   <path fill="#43a0cb" transform="translate(-51.45 -39.57)" d="m416,373.1s8,-53.83 -60.5,-51.17l-34.5,4.59s32.91,5.92 40.83,6.79l0.84,0.12c7.33,1.34 32.67,-0.33 53.33,39.67z"/>
   <path opacity="0.1" transform="translate(-51.45 -39.57)" d="m372.25,587.77l0,-0.62c28.09,-24.29 0,0.62 0,0.62z"/>
   <path fill="#575988" transform="translate(-51.45 -39.57)" d="m311.82,589.66a67.84,67.84 0 0 1 -12.1,0l-84.15,-122.48c1.55,-4.06 5.26,-6.48 8.81,-7.91l87.44,130.39z"/>
   <path fill="#575988" transform="translate(-51.45 -39.57)" d="m257.25,458.52l-4,4.75s-30.34,-50.4 -36.86,-76c1.24,-2.91 3.11,-3.53 3.11,-3.53s3.16,-2.33 8.25,-6c1.89,12.04 8.34,41.48 29.5,80.78z"/>
   <path fill="#575988" transform="translate(-51.45 -39.57)" d="m279.5,443l-8,4.5c-21.84,-25.56 -23.7,-68.5 -23.5,-85.61l5.76,-4.14c0.78,22.47 25.74,85.25 25.74,85.25z"/>
   <path opacity="0.1" transform="translate(-51.45 -39.57)" d="m300.5,438.52c-0.25,3.25 -9.5,36.25 4,41.75s-4,-41.75 -4,-41.75z"/>
   <path opacity="0.1" transform="translate(-51.45 -39.57)" d="m329.5,495.27c0.5,1.75 5,58.75 14.75,54.25s4.5,-69.5 4.5,-69.5l-19.25,15.25z"/>
   <path opacity="0.1" transform="translate(-51.45 -39.57)" d="m794.33,270.6a62.42,62.42 0 0 1 -17.48,43.4a36.52,36.52 0 0 1 -13.9,0.24a13.84,13.84 0 0 1 -6.5,-2.61a16.91,16.91 0 0 1 -4.21,-6.09c-3.65,-7.85 -5.52,-16.92 -10.64,-23.64s-15.51,-9.67 -20.45,-2.78c-2.69,3.74 -3.14,9.49 -6.73,12.08c-4.31,3.12 -10,-0.55 -13.35,-5c-9.9,-13 -6.51,-38.56 -25.39,-42.15l-0.76,-0.13a62.67,62.67 0 0 1 119.41,26.68z"/>
   <path fill="#945b79" transform="translate(-51.45 -39.57)" d="m676.68,243.12c-3.06,-0.59 -6.61,-0.51 -8.66,-3.15c-1.21,-1.56 -1.56,-3.72 -1.85,-5.77c-1.23,-8.86 -1.9,-18.37 1.63,-26.4c5.79,-13.17 20.69,-17.57 33.64,-16.59s25.66,5.81 38.61,5c9.52,-0.62 18.91,-4.3 28.4,-3.25c7.51,0.84 14.51,4.57 21.26,8.38c6.32,3.56 12.78,7.39 17.26,13.57c6.58,9.05 7.82,21.55 8,33.28c0.22,13.77 -0.75,28.07 -6.53,40.19c-8.38,17.59 -27.07,28.06 -44.49,24.91a13.84,13.84 0 0 1 -6.5,-2.61a17,17 0 0 1 -4.2,-6.09c-3.66,-7.86 -5.53,-16.92 -10.65,-23.65s-15.51,-9.66 -20.45,-2.77c-2.69,3.73 -3.14,9.49 -6.73,12.08c-4.31,3.11 -10,-0.56 -13.35,-5c-9.9,-13.01 -6.51,-38.55 -25.39,-42.13z"/>
   <path fill="#945b79" transform="translate(-51.45 -39.57)" d="m828.86,214.05c9.53,4.55 16.14,13.41 22.35,21.94c5.17,7.09 10.52,14.67 11.2,23.41c0.27,3.58 -0.26,7.22 0.42,10.74c2.39,12.43 18,18 22.56,29.84c2.12,5.58 1.45,11.79 0.52,17.69a238.69,238.69 0 0 1 -5.39,25.33c-1.35,5 -2.88,10.2 -1.85,15.28c0.79,3.94 3,7.4 4.76,11c4.59,9.71 5.38,20.72 5.73,31.45s0.34,21.65 3.55,31.89s10.29,19.92 20.5,23.23a24.09,24.09 0 0 1 -11.54,4.1c-0.61,3.35 1.3,6.76 4,8.88s6,3.22 9.22,4.27a17.4,17.4 0 0 1 -15.32,2.36c-4.27,-1.4 -7.8,-4.4 -11.21,-7.34l-19.17,-16.49a54.12,54.12 0 0 1 -7.07,-6.88c-12.4,-15.41 -5,-38.76 -11.92,-57.27c-5.64,-15.05 -20.8,-27.27 -19.41,-43.28c0.38,-4.48 2.1,-8.72 3.54,-13a110.67,110.67 0 0 0 -11.65,-93.82c-2.19,-3.4 -4.73,-6.82 -8.38,-8.57c-5.55,-2.65 -13.48,-1.51 -16.63,-6.8c-1.67,-2.79 -2,-7.7 -2.15,-10.83c10.18,-2.33 23.82,-1.68 33.34,2.87z"/>
   <path opacity="0.1" transform="translate(-51.45 -39.57)" d="m341.87,383.36c4.68,-30.76 43.13,-41.87 63.54,-18.36c5.9,6.82 11.13,14.29 14.09,21.76c10,25.25 10.75,27.5 10.75,27.5s-61.75,12 -61.25,21l-28,-44.75s0.21,-2.8 0.87,-7.15z"/>
   <path fill="#dce6f2" transform="translate(-51.45 -39.57)" d="m341.87,380.36c4.68,-30.76 43.13,-41.87 63.54,-18.36c5.9,6.82 11.13,14.29 14.09,21.76c10,25.25 10.75,27.5 10.75,27.5s-61.75,12 -61.25,21l-28,-44.75s0.21,-2.8 0.87,-7.15z"/>
   <path opacity="0.1" transform="translate(-51.45 -39.57)" d="m359.25,340.89c0.75,1.25 30.25,37.25 45.75,42.38s-45.75,-42.38 -45.75,-42.38z"/>
   <path opacity="0.1" transform="translate(-51.45 -39.57)" d="m232.5,457.27s78,92 88,129.25"/>
   <path opacity="0.1" stroke-width="2" stroke-miterlimit="10" stroke="#000" fill="none" transform="translate(-51.45 -39.57)" d="m235.5,372.27s17,88 50,125s67,100 67,100"/>
   <g opacity="0.1">
    <path transform="translate(-51.45 -39.57)" d="m476.51,244.24a11.92,11.92 0 0 1 -2.84,8a9.58,9.58 0 0 1 -11.84,1.51c-1.07,-0.68 -2.13,-1.63 -3.4,-1.52a4.13,4.13 0 0 0 -2,0.91c-5.63,4.12 -9.89,10.76 -16.5,12.59a11.55,11.55 0 0 1 -0.52,5.25c7.2,-1.39 11.6,-8.51 17.52,-12.84a4.13,4.13 0 0 1 2,-0.91c1.27,-0.11 2.33,0.84 3.4,1.52a9.58,9.58 0 0 0 11.84,-1.51c3.09,-3.4 3.28,-8.52 2.34,-13z"/>
    <path transform="translate(-51.45 -39.57)" d="m472.52,225.48c0.08,0.82 0.22,1.63 0.38,2.44c0,-5 1.19,-10.2 0,-15c0.02,4.08 -0.8,8.4 -0.38,12.56z"/>
    <path transform="translate(-51.45 -39.57)" d="m439.21,259.4a13.57,13.57 0 0 1 -11.84,3.8a5.77,5.77 0 0 0 0.16,-3.93a116.35,116.35 0 0 1 -15.78,7.32l-0.57,-2.87c-7.66,3.74 -7.06,16.43 -14.72,20.17c-4.56,2.23 -11,0.62 -14.15,4.64c-0.7,0.91 -1.11,2 -1.75,3c-2.5,3.83 -7.9,4.66 -12.36,3.65c-7.42,-1.68 -13.47,-7.28 -17.4,-13.79s-6.05,-13.93 -8.12,-21.25l-4.08,-14.41c-0.67,-2.4 -1.35,-4.8 -1.79,-7.25c0,0.74 0,1.47 0.11,2.2a56.14,56.14 0 0 0 2.18,10.05l4.08,14.41c2.07,7.32 4.18,14.74 8.12,21.25s10,12.11 17.4,13.79c4.46,1 9.86,0.18 12.36,-3.65c0.64,-1 1.05,-2.07 1.75,-3c3.1,-4 9.59,-2.41 14.15,-4.64c7.66,-3.74 7.06,-16.43 14.72,-20.17l0.57,2.87a116.35,116.35 0 0 0 15.75,-7.32a5.77,5.77 0 0 1 -0.16,3.93a13.57,13.57 0 0 0 11.38,-3.38a11.55,11.55 0 0 0 -0.01,-5.42z"/>
   </g>
   <path opacity="0.1" transform="translate(-51.45 -39.57)" d="m419.91,325.33c-5.38,3.1 -17.88,10 -20.41,8.82c-2.7,-1.25 -32.16,-11.56 -42,-15c0.65,-3.34 3,-11.84 10.79,-14.63a10.34,10.34 0 0 1 4.83,-0.13l29.88,11.82c8.37,4.25 15.32,8.2 16.91,9.12z"/>
   <path fill="#dce6f2" transform="translate(-51.45 -39.57)" d="m419.91,322.33c-5.38,3.1 -17.88,10 -20.41,8.82c-2.7,-1.25 -32.16,-11.56 -42,-15c0.65,-3.34 3,-11.84 10.79,-14.63a10.34,10.34 0 0 1 4.83,-0.13l29.88,11.82c8.37,4.25 15.32,8.2 16.91,9.12z"/>
   <path opacity="0.1" transform="translate(-51.45 -39.57)" d="m815,247c-0.29,11.27 -1.82,22.54 -6.51,32.39c-8.38,17.59 -27.07,28.06 -44.49,24.91a13.84,13.84 0 0 1 -6.5,-2.61a17,17 0 0 1 -4.2,-6.09c-3.66,-7.86 -5.53,-16.92 -10.65,-23.65s-15.51,-9.66 -20.45,-2.77c-2.69,3.73 -3.14,9.49 -6.73,12.08c-4.31,3.11 -10,-0.56 -13.35,-5c-9.9,-13 -6.51,-38.57 -25.39,-42.15c-3.06,-0.59 -6.61,-0.51 -8.66,-3.15c-1.21,-1.56 -1.56,-3.72 -1.85,-5.77c-0.34,-2.41 -0.63,-4.87 -0.8,-7.34a72.85,72.85 0 0 0 0.8,16.34c0.29,2.05 0.64,4.21 1.85,5.77c2.05,2.64 5.6,2.56 8.66,3.15c18.88,3.58 15.49,29.12 25.39,42.15c3.34,4.39 9,8.06 13.35,5c3.59,-2.59 4,-8.35 6.73,-12.08c4.94,-6.89 15.33,-3.95 20.45,2.77s7,15.79 10.65,23.65a17,17 0 0 0 4.2,6.09a13.84,13.84 0 0 0 6.5,2.61c17.42,3.15 36.11,-7.32 44.49,-24.91c5.78,-12.12 6.75,-26.42 6.53,-40.19c-0.02,-0.44 -0.02,-0.84 -0.02,-1.2z"/>
   <g opacity="0.1">
    <path transform="translate(-51.45 -39.57)" d="m880.39,295c2.12,5.58 1.45,11.79 0.52,17.69a238.69,238.69 0 0 1 -5.39,25.31c-1.35,5 -2.88,10.2 -1.85,15.28c0.79,3.94 3,7.4 4.76,11c4.59,9.71 5.38,20.72 5.73,31.45s0.34,21.65 3.55,31.89a39.38,39.38 0 0 0 11.48,18.1a42.18,42.18 0 0 1 -6.48,-12.72c-3.21,-10.24 -3.21,-21.16 -3.55,-31.89s-1.14,-21.74 -5.73,-31.44c-1.72,-3.63 -4,-7.09 -4.76,-11c-1,-5.08 0.5,-10.29 1.85,-15.29a238.51,238.51 0 0 0 5.39,-25.38c0.93,-5.9 1.6,-12.12 -0.52,-17.7c-1.71,-4.47 -5,-8 -8.57,-11.43a23.36,23.36 0 0 1 3.57,6.13z"/>
    <path transform="translate(-51.45 -39.57)" d="m913.21,456.25a26.12,26.12 0 0 1 -7.44,-3.88a24.18,24.18 0 0 1 -9.1,2.64c-0.61,3.35 1.3,6.76 4,8.88a13.87,13.87 0 0 0 1.7,1.17a8,8 0 0 1 -0.67,-4.71a24.3,24.3 0 0 0 11.51,-4.1z"/>
    <path transform="translate(-51.45 -39.57)" d="m809.27,223.89c-3.81,-1.82 -8.74,-1.86 -12.48,-3.41a10.24,10.24 0 0 0 0.85,2c3.15,5.28 11.08,4.14 16.63,6.8a13.64,13.64 0 0 1 2,1.23a19.25,19.25 0 0 0 -7,-6.62z"/>
    <path transform="translate(-51.45 -39.57)" d="m906.63,470a17.37,17.37 0 0 1 -12.09,0.57c-4.27,-1.4 -7.8,-4.4 -11.21,-7.34l-19.17,-16.49c-0.91,-0.78 -1.81,-1.57 -2.69,-2.37c0.2,0.27 0.4,0.55 0.62,0.82a53.48,53.48 0 0 0 7.07,6.88l19.17,16.5c3.41,2.93 6.94,5.94 11.21,7.34a17.4,17.4 0 0 0 15.32,-2.37a32.39,32.39 0 0 1 -8.23,-3.54z"/>
    <path transform="translate(-51.45 -39.57)" d="m846.21,231c5.17,7.09 10.52,14.67 11.2,23.41c0.27,3.58 -0.26,7.22 0.42,10.74c1.08,5.63 4.89,9.86 9.15,13.89a19.75,19.75 0 0 1 -4.15,-8.55c-0.68,-3.53 -0.15,-7.17 -0.42,-10.75c-0.68,-8.74 -6,-16.32 -11.2,-23.4c-3.76,-5.17 -7.68,-10.45 -12.29,-14.83c2.57,3.04 4.96,6.28 7.29,9.49z"/>
   </g>
   <path opacity="0.1" transform="translate(-51.45 -39.57)" d="m802.34,210.27s-6,10 11,18.33l1,-2.67l-12,-15.66z"/>
   <path fill="#ff6584" transform="translate(-51.45 -39.57)" d="m801.34,210.27s-6,10 11,18.33l1,-2.67l-12,-15.66z"/>
   <path fill="#43a0cb" transform="translate(-51.45 -39.57)" d="m1038.05,776.26s5.5,7.19 -2.53,18s-14.65,20 -12,26.77c0,0 12.12,-20.15 22,-20.43s3.38,-12.22 -7.47,-24.34z"/>
   <path opacity="0.1" transform="translate(-51.45 -39.57)" d="m1038.05,776.26a9.05,9.05 0 0 1 1.13,2.25c9.62,11.31 14.74,21.86 5.49,22.12c-8.61,0.25 -18.94,15.65 -21.42,19.54c0.08,0.3 0.18,0.59 0.29,0.89c0,0 12.12,-20.15 22,-20.43s3.36,-12.25 -7.49,-24.37z"/>
   <path fill="#ffd037" transform="translate(-51.45 -39.57)" d="m1048.27,785.42c0,2.53 -0.29,4.58 -0.64,4.58s-0.63,-2 -0.63,-4.58s0.35,-1.34 0.7,-1.34s0.57,-1.19 0.57,1.34z"/>
   <path fill="#ffd037" transform="translate(-51.45 -39.57)" d="m1051.77,788.44c-2.22,1.21 -4.16,1.94 -4.32,1.63s1.49,-1.54 3.71,-2.75s1.35,-0.33 1.52,0s1.32,-0.09 -0.91,1.12z"/>
   <path fill="#43a0cb" transform="translate(-51.45 -39.57)" d="m1009,776.26s-5.5,7.19 2.53,18s14.65,20 12,26.77c0,0 -12.11,-20.15 -22,-20.43s-3.34,-12.22 7.47,-24.34z"/>
   <path opacity="0.1" transform="translate(-51.45 -39.57)" d="m1009,776.26a9.05,9.05 0 0 0 -1.13,2.25c-9.62,11.31 -14.74,21.86 -5.49,22.12c8.61,0.25 18.94,15.65 21.42,19.54a7.76,7.76 0 0 1 -0.3,0.89s-12.11,-20.15 -22,-20.43s-3.31,-12.25 7.5,-24.37z"/>
   <path fill="#ffd037" transform="translate(-51.45 -39.57)" d="m998.82,785.42c0,2.53 0.29,4.58 0.64,4.58s0.63,-2 0.63,-4.58s-0.35,-1.34 -0.7,-1.34s-0.57,-1.19 -0.57,1.34z"/>
   <path fill="#ffd037" transform="translate(-51.45 -39.57)" d="m995.32,788.44c2.22,1.21 4.15,1.94 4.32,1.63s-1.49,-1.54 -3.71,-2.75s-1.35,-0.33 -1.52,0s-1.31,-0.09 0.91,1.12z"/>
   <path fill="#a8a8a8" transform="translate(-51.45 -39.57)" d="m1000.57,820.12s15.36,-0.48 20,-3.77s23.63,-7.24 24.78,-2s23.08,26.29 5.74,26.43s-40.29,-2.7 -44.91,-5.51s-5.61,-15.15 -5.61,-15.15z"/>
   <path opacity="0.2" transform="translate(-51.45 -39.57)" d="m1051.39,839c-17.34,0.14 -40.29,-2.7 -44.91,-5.51c-3.52,-2.15 -4.92,-9.84 -5.39,-13.38l-0.52,0s1,12.39 5.6,15.21s27.57,5.65 44.91,5.51c5,0 6.73,-1.82 6.64,-4.46c-0.72,1.63 -2.61,2.63 -6.33,2.63z"/>
   <path fill="#43a0cb" transform="translate(-51.45 -39.57)" d="m314.09,802.49a11.68,11.68 0 0 0 3.84,-5.78c0.49,-2.3 -0.49,-5.06 -2.68,-5.9c-2.46,-0.94 -5.09,0.77 -7.08,2.49s-4.28,3.69 -6.89,3.32a10.47,10.47 0 0 0 3.24,-9.81a4.12,4.12 0 0 0 -0.9,-2c-1.36,-1.46 -3.84,-0.83 -5.48,0.32c-5.2,3.65 -6.65,10.72 -6.67,17.07c-0.53,-2.29 -0.09,-4.68 -0.1,-7s-0.66,-5 -2.64,-6.22a8,8 0 0 0 -4,-1c-2.34,-0.09 -4.94,0.15 -6.54,1.86c-2,2.12 -1.47,5.69 0.26,8s4.35,3.81 6.76,5.42a15,15 0 0 1 4.84,4.61a4.83,4.83 0 0 1 0.36,0.83l14.59,0a40.77,40.77 0 0 0 9.09,-6.21z"/>
   <path stroke-width="2" stroke-miterlimit="10" stroke="#535461" fill="none" transform="translate(-51.45 -39.57)" d="m197.66,818.26s-14,-47.7 2.63,-82.82a75.41,75.41 0 0 0 6.1,-47.27a127.26,127.26 0 0 0 -6.7,-22.19"/>
   <path fill="#43a0cb" transform="translate(-51.45 -39.57)" d="m210.08,643.79c0,5.84 -10.59,22.8 -10.59,22.8s-10.59,-17 -10.59,-22.8a10.59,10.59 0 0 1 21.18,0z"/>
   <path fill="#43a0cb" transform="translate(-51.45 -39.57)" d="m227.58,676.17c-3.18,4.91 -21.28,13.39 -21.28,13.39s0.32,-20 3.5,-24.89a10.59,10.59 0 0 1 17.78,11.5z"/>
   <path fill="#43a0cb" transform="translate(-51.45 -39.57)" d="m226.81,731.52c-5.22,2.63 -25.13,0.81 -25.13,0.81s10.38,-17.08 15.6,-19.72a10.59,10.59 0 1 1 9.53,18.91z"/>
   <path fill="#43a0cb" transform="translate(-51.45 -39.57)" d="m216.8,773.26c-4.7,3.48 -24.63,5 -24.63,5s7.34,-18.59 12,-22.07a10.59,10.59 0 1 1 12.59,17l0.04,0.07z"/>
   <path fill="#43a0cb" transform="translate(-51.45 -39.57)" d="m184.07,690.69c4.19,4.08 23.73,8.3 23.73,8.3s-4.79,-19.41 -9,-23.49a10.59,10.59 0 1 0 -14.75,15.19l0.02,0z"/>
   <path fill="#43a0cb" transform="translate(-51.45 -39.57)" d="m173,739.66c5.22,2.63 25.13,0.82 25.13,0.82s-10.37,-17.09 -15.6,-19.72a10.58,10.58 0 1 0 -9.53,18.9z"/>
   <path fill="#43a0cb" transform="translate(-51.45 -39.57)" d="m168.74,788.74c4.7,3.47 24.63,5 24.63,5s-7.34,-18.6 -12,-22.08a10.59,10.59 0 0 0 -12.59,17l-0.04,0.08z"/>
   <path fill="#43a0cb" transform="translate(-51.45 -39.57)" d="m210.08,643.79c0,5.84 -10.59,22.8 -10.59,22.8s-10.59,-17 -10.59,-22.8a10.59,10.59 0 0 1 21.18,0z"/>
   <path fill="#43a0cb" transform="translate(-51.45 -39.57)" d="m227.58,676.17c-3.18,4.91 -21.28,13.39 -21.28,13.39s0.32,-20 3.5,-24.89a10.59,10.59 0 0 1 17.78,11.5z"/>
   <path fill="#43a0cb" transform="translate(-51.45 -39.57)" d="m226.81,731.52c-5.22,2.63 -25.13,0.81 -25.13,0.81s10.38,-17.08 15.6,-19.72a10.59,10.59 0 1 1 9.53,18.91z"/>
   <path fill="#43a0cb" transform="translate(-51.45 -39.57)" d="m216.8,773.26c-4.7,3.48 -24.63,5 -24.63,5s7.34,-18.59 12,-22.07a10.59,10.59 0 1 1 12.59,17l0.04,0.07z"/>
   <path fill="#43a0cb" transform="translate(-51.45 -39.57)" d="m184.07,690.69c4.19,4.08 23.73,8.3 23.73,8.3s-4.79,-19.41 -9,-23.49a10.59,10.59 0 1 0 -14.75,15.19l0.02,0z"/>
   <path fill="#43a0cb" transform="translate(-51.45 -39.57)" d="m173,739.66c5.22,2.63 25.13,0.82 25.13,0.82s-10.37,-17.09 -15.6,-19.72a10.58,10.58 0 1 0 -9.53,18.9z"/>
   <path fill="#43a0cb" transform="translate(-51.45 -39.57)" d="m168.74,788.74c4.7,3.47 24.63,5 24.63,5s-7.34,-18.6 -12,-22.08a10.59,10.59 0 0 0 -12.59,17l-0.04,0.08z"/>
   <path fill="#a8a8a8" transform="translate(-51.45 -39.57)" d="m164.45,815.26s17.11,-3.4 21.67,-7.93s25.1,-12.46 27.38,-6.8s30.8,24.92 11.41,28.32s-45.63,4.53 -51.34,2.26s-9.12,-15.85 -9.12,-15.85z"/>
   <path opacity="0.2" transform="translate(-51.45 -39.57)" d="m224.91,826.74c-19.4,3.4 -45.63,4.53 -51.34,2.27c-4.34,-1.73 -7.36,-10 -8.55,-13.87l-0.57,0.12s3.42,13.59 9.12,15.85s31.94,1.14 51.34,-2.26c5.59,-1 7.19,-3.29 6.59,-6.2c-0.5,1.9 -2.43,3.35 -6.59,4.09z"/>
  </symbol>
 </defs>
 <g>
  <title>background</title>
  <rect fill="#fff" id="canvas_background" height="404" width="584" y="-1" x="-1"/>
  <g display="none" overflow="visible" y="0" x="0" height="100%" width="100%" id="canvasGrid">
   <rect fill="url(#gridpattern)" stroke-width="0" y="1" x="1" height="400" width="580"/>
  </g>
 </g>
 <g>
  <title>Layer 1</title>
  <use stroke-width="0" opacity="0.85" fill="#1c2323" x="2.278619" y="2.440416" transform="matrix(0.4415855083603412,0,0,0.4133993259976907,1.4308380733692747,61.20101577404684) " xlink:href="#svg_3" id="svg_4"/>
 </g>
</svg>